<?xml version="1.0" encoding="utf-8"?>
<!-- Generator: Adobe Illustrator 18.1.1, SVG Export Plug-In . SVG Version: 6.00 Build 0)  -->
<svg version="1.1" id="Layer_1" xmlns="http://www.w3.org/2000/svg" xmlns:xlink="http://www.w3.org/1999/xlink" x="0px" y="0px"
	 viewBox="-223 225 512 512" enable-background="new -223 225 512 512" xml:space="preserve">
<path d="M203,225h-340c-47.3,0-86,38.7-86,86v340c0,47.3,38.7,86,86,86h340c47.3,0,86-38.7,86-86V311C289,263.7,250.3,225,203,225z
	 M-31,641h-64V417h64V641z M-63,385c-17.7,0-32-14.3-32-32s14.3-32,32-32s32,14.3,32,32S-45.3,385-63,385z M193,641h-64V513
	c0-17.7-14.3-32-32-32s-32,14.3-32,32v128H1V417h64v39.7c13.2-18.1,33.4-39.7,56-39.7c39.8,0,72,35.8,72,80V641z"/>
</svg>
