<?xml version="1.0" encoding="utf-8"?>
<!-- Generator: Adobe Illustrator 18.1.1, SVG Export Plug-In . SVG Version: 6.00 Build 0)  -->
<svg version="1.1" id="Layer_1" xmlns="http://www.w3.org/2000/svg" xmlns:xlink="http://www.w3.org/1999/xlink" x="0px" y="0px"
	 viewBox="-223 225 512 512" enable-background="new -223 225 512 512" xml:space="preserve">
<path d="M33,225c-141.4,0-256,114.6-256,256s114.6,256,256,256s256-114.6,256-256S174.4,225,33,225z M-95,353h256
	c4.6,0,9,1,13.1,2.8L33,520.4l-141.1-164.6C-104,354-99.6,353-95,353z M-127,577V385c0-0.7,0-1.3,0.1-2l93.8,109.5l-92.8,92.8
	C-126.6,582.6-127,579.8-127,577z M161,609H-95c-2.8,0-5.6-0.4-8.3-1.1l91.1-91.1L33,569.6l45.2-52.7l91.1,91.1
	C166.6,608.6,163.8,609,161,609z M193,577c0,2.8-0.4,5.6-1.1,8.3l-92.8-92.8L192.9,383c0,0.7,0.1,1.3,0.1,2V577z"/>
</svg>
